<?xml version="1.0" encoding="utf-8"?>
<!-- Designed by Vexels.com - 2017 All Rights Reserved - https://vexels.com/terms-and-conditions/  -->

<svg version="1.1" id="Layer_1" xmlns="http://www.w3.org/2000/svg" xmlns:xlink="http://www.w3.org/1999/xlink" x="0px" y="0px"
	 width="1200px" height="1200px" viewBox="0 0 1200 1200" enable-background="new 0 0 1200 1200" xml:space="preserve">
<g>
	<g>
		<g>
			<g>
				<path fill="#372F35" d="M497.998,535.26l94.625,68.524L687.2,535.26c0.024-0.049,0.071-0.071,0.144-0.119l215.968-156.464
					c-9.302-13.062-24.484-21.699-41.638-21.699H323.525c-17.155,0-32.336,8.637-41.638,21.699L497.879,535.14
					C497.95,535.189,497.998,535.211,497.998,535.26z"/>
				<path fill="#372F35" d="M272.915,403.423c-0.144,1.569-0.475,3.046-0.475,4.663v266.482c0,4.52,0.785,8.827,1.903,13.013
					l195.412-141.568L272.915,403.423z"/>
				<path fill="#372F35" d="M869.885,587.937c15.298,0,29.478,2.641,42.922,6.495V408.086c0-1.618-0.358-3.119-0.499-4.688
					L715.443,546.014l80.896,58.625C818.252,594.004,843.069,587.937,869.885,587.937z"/>
				<path fill="#372F35" d="M772.713,618.773l-78.85-57.102l-101.24,73.353L491.359,561.67L286.786,709.828
					c9.28,9.755,22.32,15.822,36.739,15.822h384.875C715.514,680.92,738.854,643.351,772.713,618.773z"/>
				<g>
					<path fill="#372F35" d="M914.995,857.726c-22.152,9.994-41.351,13.278-68.025,13.278c-61.456,0-115.491-43.994-115.491-116.563
						c0-75.448,55.175-141.022,138.405-141.022c65.574,0,112.136,44.803,112.136,106.973c0,54.368-30.336,88.464-70.332,88.464
						c-17.393,0-29.956-9.256-31.812-28.482h-0.714c-11.897,18.536-28.123,28.482-48.134,28.482
						c-23.626,0-41.424-18.132-41.424-48.467c0-45.588,33.669-86.178,86.941-86.178c16.297,0,34.785,3.949,44.065,8.803
						l-11.088,68.812c-3.735,21.84-1.143,31.81,9.232,32.263c15.871,0.714,35.881-19.701,35.881-62.647
						c0-48.394-31.074-85.418-88.463-85.418c-56.912,0-106.164,44.043-106.164,115.089c0,62.146,39.212,97.028,94.362,97.028
						c18.87,0,39.188-4.164,54.01-11.493L914.995,857.726z M882.089,704.951c-2.926-0.831-6.995-1.545-11.49-1.545
						c-24.364,0-43.639,23.982-43.639,52.463c0,14.109,6.33,22.983,18.512,22.983c13.635,0,28.172-17.32,31.454-38.805
						L882.089,704.951z"/>
				</g>
			</g>
		</g>
		<path fill="#372F35" d="M599.999,50C296.756,50,50.023,296.711,50.023,599.976C50.023,903.267,296.756,1150,599.999,1150
			c195.412,0,366.914-102.76,464.511-256.773c53.82-85.014,85.467-185.396,85.467-293.251C1149.977,296.711,903.29,50,599.999,50z
			 M1021.018,866.816c-88.605,139.331-244.021,232.268-421.019,232.268c-275.166,0-499.011-223.916-499.011-499.108
			c0-275.141,223.845-499.06,499.011-499.06c275.168,0,499.035,223.918,499.035,499.06
			C1099.034,698.17,1070.15,789.511,1021.018,866.816z"/>
	</g>
</g>
</svg>
